<svg xmlns="http://www.w3.org/2000/svg" xmlns:xlink="http://www.w3.org/1999/xlink" width="1016" height="452" viewBox="0 0 1016 452">
  <defs>
    <clipPath id="clip-niu_mini_-_rough_led_positions_1">
      <rect width="1016" height="452"/>
    </clipPath>
  </defs>
  <g id="niu_mini_-_rough_led_positions_1" data-name="niu mini - rough led positions – 1" clip-path="url(#clip-niu_mini_-_rough_led_positions_1)">
    <rect width="1016" height="452" fill="#fff"/>
    <g id="Keyboard" transform="translate(16 29)" fill="#fff" stroke="#707070" stroke-width="1" opacity="0.623">
      <rect width="984" height="321" stroke="none"/>
      <rect x="0.5" y="0.5" width="983" height="320" fill="none"/>
    </g>
    <g id="Layer_-_LED_14" data-name="Layer - LED 14" transform="translate(4)">
      <g id="Box" transform="translate(47 164)" fill="none" stroke="#d3d3d3" stroke-width="1">
        <rect width="155" height="86" stroke="none"/>
        <rect x="0.5" y="0.5" width="154" height="85" fill="none"/>
      </g>
      <g id="LED_14-1" data-name="LED 14-1" transform="translate(56 179)" fill="#fff" stroke="#707070" stroke-width="1" opacity="0.478">
        <rect width="22" height="22" stroke="none"/>
        <rect x="0.5" y="0.5" width="21" height="21" fill="none"/>
      </g>
      <g id="LED_14-2" data-name="LED 14-2" transform="translate(94 179)" fill="#8784db" stroke="#707070" stroke-width="1" opacity="0.478">
        <rect width="22" height="22" stroke="none"/>
        <rect x="0.5" y="0.5" width="21" height="21" fill="none"/>
      </g>
      <g id="LED_14-3" data-name="LED 14-3" transform="translate(132 179)" fill="#33d665" stroke="#707070" stroke-width="1" opacity="0.478">
        <rect width="22" height="22" stroke="none"/>
        <rect x="0.5" y="0.5" width="21" height="21" fill="none"/>
      </g>
      <g id="LED_14-4" data-name="LED 14-4" transform="translate(170 179)" fill="#ce2d39" stroke="#707070" stroke-width="1" opacity="0.478">
        <rect width="22" height="22" stroke="none"/>
        <rect x="0.5" y="0.5" width="21" height="21" fill="none"/>
      </g>
      <text id="_0" data-name="0" transform="translate(62 220)" fill="#707070" font-size="16" font-family="Menlo-Regular, Menlo"><tspan x="0" y="0">0</tspan></text>
      <text id="_1" data-name="1" transform="translate(100 220)" fill="#707070" font-size="16" font-family="Menlo-Regular, Menlo"><tspan x="0" y="0">1</tspan></text>
      <text id="_2" data-name="2" transform="translate(138 220)" fill="#707070" font-size="16" font-family="Menlo-Regular, Menlo"><tspan x="0" y="0">2</tspan></text>
      <text id="_3" data-name="3" transform="translate(176 220)" fill="#707070" font-size="16" font-family="Menlo-Regular, Menlo"><tspan x="0" y="0">3</tspan></text>
      <text id="Layer" transform="translate(62 239)" fill="#707070" font-size="16" font-family="Menlo-Regular, Menlo"><tspan x="0" y="0">Layer</tspan></text>
      <text id="_14" data-name="14" transform="translate(58 195)" fill="#707070" font-size="15" font-family="Menlo-Regular, Menlo" opacity="0.48"><tspan x="0" y="0">14</tspan></text>
    </g>
    <g id="OS_-_LED_13" data-name="OS - LED 13" transform="translate(4)">
      <text id="M" transform="translate(62 306)" fill="#707070" font-size="16" font-family="Menlo-Regular, Menlo"><tspan x="0" y="0">M</tspan></text>
      <text id="L" transform="translate(100 306)" fill="#707070" font-size="16" font-family="Menlo-Regular, Menlo"><tspan x="0" y="0">L</tspan></text>
      <text id="OS" transform="translate(61 325)" fill="#707070" font-size="16" font-family="Menlo-Regular, Menlo"><tspan x="0" y="0">OS</tspan></text>
      <g id="LED_13-1" data-name="LED 13-1" transform="translate(56 265)" fill="#fff" stroke="#707070" stroke-width="1" opacity="0.478">
        <rect width="22" height="22" stroke="none"/>
        <rect x="0.5" y="0.5" width="21" height="21" fill="none"/>
      </g>
      <g id="LED_13-2" data-name="LED 13-2" transform="translate(94 265)" fill="#bc27b0" stroke="#707070" stroke-width="1" opacity="0.478">
        <rect width="22" height="22" stroke="none"/>
        <rect x="0.5" y="0.5" width="21" height="21" fill="none"/>
      </g>
      <g id="Box-2" data-name="Box" transform="translate(47 257)" fill="none" stroke="#d3d3d3" stroke-width="1">
        <rect width="79" height="78" stroke="none"/>
        <rect x="0.5" y="0.5" width="78" height="77" fill="none"/>
      </g>
      <text id="_13" data-name="13" transform="translate(58 281)" fill="#707070" font-size="15" font-family="Menlo-Regular, Menlo" opacity="0.48"><tspan x="0" y="0">13</tspan></text>
    </g>
    <g id="Activity_-_LED_9_10_11_12" data-name="Activity - LED 9/10/11/12">
      <g id="Box-3" data-name="Box" transform="translate(226 211)" fill="none" stroke="#d3d3d3" stroke-width="1">
        <rect width="561" height="93" stroke="none"/>
        <rect x="0.5" y="0.5" width="560" height="92" fill="none"/>
      </g>
      <g id="LED_12" data-name="LED 12" transform="translate(234 265)" fill="#fff" stroke="#707070" stroke-width="1" opacity="0.478">
        <rect width="22" height="22" stroke="none"/>
        <rect x="0.5" y="0.5" width="21" height="21" fill="none"/>
      </g>
      <rect id="LED_11" data-name="LED 11" width="22" height="22" transform="translate(408 265)" fill="#00d8b7" opacity="0.478"/>
      <rect id="LED_10" data-name="LED 10" width="22" height="22" transform="translate(582 265)" fill="#e61cd7" opacity="0.478"/>
      <rect id="LED_9" data-name="LED 9" width="22" height="22" transform="translate(756 265)" fill="#d30000" opacity="0.478"/>
      <text id="_0-2" data-name="0" transform="translate(240 257)" fill="#707070" font-size="16" font-family="Menlo-Regular, Menlo"><tspan x="0" y="0">0</tspan></text>
      <text id="_1-2" data-name="1" transform="translate(414 257)" fill="#707070" font-size="16" font-family="Menlo-Regular, Menlo"><tspan x="0" y="0">1</tspan></text>
      <text id="_2-2" data-name="2" transform="translate(588 257)" fill="#707070" font-size="16" font-family="Menlo-Regular, Menlo"><tspan x="0" y="0">2</tspan></text>
      <text id="_3-2" data-name="3" transform="translate(762 257)" fill="#707070" font-size="16" font-family="Menlo-Regular, Menlo"><tspan x="0" y="0">3</tspan></text>
      <text id="Activity_visualizing_WPM_using_4_LEDs" data-name="Activity | visualizing WPM using 4 LEDs" transform="translate(320 234)" fill="#707070" font-size="16" font-family="Menlo-Regular, Menlo"><tspan x="0" y="0">Activity | visualizing WPM using 4 LEDs</tspan></text>
      <text id="_9" data-name="9" transform="translate(762 282)" fill="#fff" font-size="16" font-family="Menlo-Regular, Menlo"><tspan x="0" y="0">9</tspan></text>
      <text id="_10" data-name="10" transform="translate(584 281)" fill="#fff" font-size="15" font-family="Menlo-Regular, Menlo"><tspan x="0" y="0">10</tspan></text>
      <text id="_11" data-name="11" transform="translate(410 281)" fill="#fff" font-size="15" font-family="Menlo-Regular, Menlo"><tspan x="0" y="0">11</tspan></text>
      <text id="_12" data-name="12" transform="translate(236 281)" fill="#707070" font-size="15" font-family="Menlo-Regular, Menlo" opacity="0.48"><tspan x="0" y="0">12</tspan></text>
    </g>
    <g id="Capslock_-_LED_8" data-name="Capslock - LED 8" transform="translate(4)">
      <g id="Box-4" data-name="Box" transform="translate(871 257)" fill="none" stroke="#d3d3d3" stroke-width="1">
        <rect width="87" height="78" stroke="none"/>
        <rect x="0.5" y="0.5" width="86" height="77" fill="none"/>
      </g>
      <g id="LED_8-1" data-name="LED 8-1" transform="translate(926 265)" fill="#fff" stroke="#707070" stroke-width="1" opacity="0.478">
        <rect width="22" height="22" stroke="none"/>
        <rect x="0.5" y="0.5" width="21" height="21" fill="none"/>
      </g>
      <text id="On" transform="translate(890 306)" fill="#707070" font-size="16" font-family="Menlo-Regular, Menlo"><tspan x="0" y="0">On</tspan></text>
      <text id="Off" transform="translate(923 306)" fill="#707070" font-size="16" font-family="Menlo-Regular, Menlo"><tspan x="0" y="0">Off</tspan></text>
      <g id="LED_8-2" data-name="LED 8-2" transform="translate(888 265)" fill="#2c26c6" stroke="#707070" stroke-width="1" opacity="0.478">
        <rect width="22" height="22" stroke="none"/>
        <rect x="0.5" y="0.5" width="21" height="21" fill="none"/>
      </g>
      <text id="Capslock" transform="translate(875 325)" fill="#707070" font-size="16" font-family="Menlo-Regular, Menlo"><tspan x="0" y="0">Capslock</tspan></text>
      <text id="_8" data-name="8" transform="translate(932 282)" fill="#707070" font-size="16" font-family="Menlo-Regular, Menlo" opacity="0.48"><tspan x="0" y="0">8</tspan></text>
    </g>
    <g id="Layer_-_LED_7" data-name="Layer - LED 7" transform="translate(760)">
      <g id="Box-5" data-name="Box" transform="translate(47 164)" fill="none" stroke="#d3d3d3" stroke-width="1">
        <rect width="155" height="86" stroke="none"/>
        <rect x="0.5" y="0.5" width="154" height="85" fill="none"/>
      </g>
      <g id="LED_7-4" data-name="LED 7-4" transform="translate(56 179)" fill="#fff" stroke="#707070" stroke-width="1" opacity="0.478">
        <rect width="22" height="22" stroke="none"/>
        <rect x="0.5" y="0.5" width="21" height="21" fill="none"/>
      </g>
      <g id="LED_7-3" data-name="LED 7-3" transform="translate(94 179)" fill="#8784db" stroke="#707070" stroke-width="1" opacity="0.478">
        <rect width="22" height="22" stroke="none"/>
        <rect x="0.5" y="0.5" width="21" height="21" fill="none"/>
      </g>
      <g id="LED_7-2" data-name="LED 7-2" transform="translate(132 179)" fill="#33d665" stroke="#707070" stroke-width="1" opacity="0.478">
        <rect width="22" height="22" stroke="none"/>
        <rect x="0.5" y="0.5" width="21" height="21" fill="none"/>
      </g>
      <g id="LED_7-1" data-name="LED 7-1" transform="translate(170 179)" fill="#ce2d39" stroke="#707070" stroke-width="1" opacity="0.478">
        <rect width="22" height="22" stroke="none"/>
        <rect x="0.5" y="0.5" width="21" height="21" fill="none"/>
      </g>
      <text id="_0-3" data-name="0" transform="translate(62 220)" fill="#707070" font-size="16" font-family="Menlo-Regular, Menlo"><tspan x="0" y="0">0</tspan></text>
      <text id="_1-3" data-name="1" transform="translate(100 220)" fill="#707070" font-size="16" font-family="Menlo-Regular, Menlo"><tspan x="0" y="0">1</tspan></text>
      <text id="_2-3" data-name="2" transform="translate(138 220)" fill="#707070" font-size="16" font-family="Menlo-Regular, Menlo"><tspan x="0" y="0">2</tspan></text>
      <text id="_3-3" data-name="3" transform="translate(176 220)" fill="#707070" font-size="16" font-family="Menlo-Regular, Menlo"><tspan x="0" y="0">3</tspan></text>
      <text id="Layer-2" data-name="Layer" transform="translate(138 239)" fill="#707070" font-size="16" font-family="Menlo-Regular, Menlo"><tspan x="0" y="0">Layer</tspan></text>
      <text id="_7" data-name="7" transform="translate(176 196)" fill="#fff" font-size="16" font-family="Menlo-Regular, Menlo"><tspan x="0" y="0">7</tspan></text>
    </g>
    <g id="LED_6" data-name="LED 6" transform="translate(930 93)" fill="#8784db" stroke="#707070" stroke-width="1" opacity="0.478">
      <rect width="22" height="22" stroke="none"/>
      <rect x="0.5" y="0.5" width="21" height="21" fill="none"/>
    </g>
    <g id="LED_5" data-name="LED 5" transform="translate(756 93)" fill="#8784db" stroke="#707070" stroke-width="1" opacity="0.478">
      <rect width="22" height="22" stroke="none"/>
      <rect x="0.5" y="0.5" width="21" height="21" fill="none"/>
    </g>
    <g id="Locked_Layer_-_LED_3_4" data-name="Locked Layer - LED 3/4" transform="translate(352 -86)">
      <g id="Box-6" data-name="Box" transform="translate(46 165)" fill="none" stroke="#d3d3d3" stroke-width="1">
        <rect width="217" height="86" stroke="none"/>
        <rect x="0.5" y="0.5" width="216" height="85" fill="none"/>
      </g>
      <g id="LED_3-1" data-name="LED 3-1" transform="translate(56 179)" fill="#fff" stroke="#707070" stroke-width="1" opacity="0.478">
        <rect width="22" height="22" stroke="none"/>
        <rect x="0.5" y="0.5" width="21" height="21" fill="none"/>
      </g>
      <g id="LED_3-2" data-name="LED 3-2" transform="translate(114 179)" fill="#8784db" stroke="#707070" stroke-width="1" opacity="0.478">
        <rect width="22" height="22" stroke="none"/>
        <rect x="0.5" y="0.5" width="21" height="21" fill="none"/>
      </g>
      <g id="LED_4-2" data-name="LED 4-2" transform="translate(172 179)" fill="#33d665" stroke="#707070" stroke-width="1" opacity="0.478">
        <rect width="22" height="22" stroke="none"/>
        <rect x="0.5" y="0.5" width="21" height="21" fill="none"/>
      </g>
      <g id="LED_4-1" data-name="LED 4-1" transform="translate(230 179)" fill="#ce2d39" stroke="#707070" stroke-width="1" opacity="0.478">
        <rect width="22" height="22" stroke="none"/>
        <rect x="0.5" y="0.5" width="21" height="21" fill="none"/>
      </g>
      <text id="_0-4" data-name="0" transform="translate(62 220)" fill="#707070" font-size="16" font-family="Menlo-Regular, Menlo"><tspan x="0" y="0">0</tspan></text>
      <text id="_1-4" data-name="1" transform="translate(120 220)" fill="#707070" font-size="16" font-family="Menlo-Regular, Menlo"><tspan x="0" y="0">1</tspan></text>
      <text id="_2-4" data-name="2" transform="translate(178 220)" fill="#707070" font-size="16" font-family="Menlo-Regular, Menlo"><tspan x="0" y="0">2</tspan></text>
      <text id="_3-4" data-name="3" transform="translate(236 220)" fill="#707070" font-size="16" font-family="Menlo-Regular, Menlo"><tspan x="0" y="0">3</tspan></text>
      <text id="Default_Layer" data-name="Default Layer" transform="translate(62 239)" fill="#707070" font-size="16" font-family="Menlo-Regular, Menlo"><tspan x="0" y="0">Default Layer</tspan></text>
      <text id="_4" data-name="4" transform="translate(236 196)" fill="#fff" font-size="16" font-family="Menlo-Regular, Menlo"><tspan x="0" y="0">4</tspan></text>
      <text id="_3-5" data-name="3" transform="translate(62 196)" fill="#707070" font-size="16" font-family="Menlo-Regular, Menlo" opacity="0.48"><tspan x="0" y="0">3</tspan></text>
    </g>
    <g id="LED_2" data-name="LED 2" transform="translate(234 93)" fill="#8784db" stroke="#707070" stroke-width="1" opacity="0.478">
      <rect width="22" height="22" stroke="none"/>
      <rect x="0.5" y="0.5" width="21" height="21" fill="none"/>
    </g>
    <g id="LED_1" data-name="LED 1" transform="translate(60 93)" fill="#8784db" stroke="#707070" stroke-width="1" opacity="0.478">
      <rect width="22" height="22" stroke="none"/>
      <rect x="0.5" y="0.5" width="21" height="21" fill="none"/>
    </g>
    <text id="Description" transform="translate(53 387)" font-size="18" font-family="Menlo-Regular, Menlo"><tspan x="0" y="0">LEDs from the front with</tspan><tspan x="0" y="21">usage and color shown</tspan></text>
    <text id="_1-5" data-name="1" transform="translate(66 110)" fill="#fff" font-size="16" font-family="Menlo-Regular, Menlo"><tspan x="0" y="0">1</tspan></text>
    <text id="_2-5" data-name="2" transform="translate(240 110)" fill="#fff" font-size="16" font-family="Menlo-Regular, Menlo"><tspan x="0" y="0">2</tspan></text>
    <text id="_5" data-name="5" transform="translate(762 110)" fill="#fff" font-size="16" font-family="Menlo-Regular, Menlo"><tspan x="0" y="0">5</tspan></text>
    <text id="_6" data-name="6" transform="translate(936 110)" fill="#fff" font-size="16" font-family="Menlo-Regular, Menlo"><tspan x="0" y="0">6</tspan></text>
  </g>
</svg>
