<svg xmlns="http://www.w3.org/2000/svg" xmlns:xlink="http://www.w3.org/1999/xlink" width="1016" height="452" viewBox="0 0 1016 452">
  <defs>
    <clipPath id="clip-niu_mini_-_rough_led_positions_3">
      <rect width="1016" height="452"/>
    </clipPath>
  </defs>
  <g id="niu_mini_-_rough_led_positions_3" data-name="niu mini - rough led positions – 3" clip-path="url(#clip-niu_mini_-_rough_led_positions_3)">
    <rect width="1016" height="452" fill="#fff"/>
    <g id="Keyboard" transform="translate(16 29)" fill="#fff" stroke="#707070" stroke-width="1" opacity="0.623">
      <rect width="984" height="321" stroke="none"/>
      <rect x="0.5" y="0.5" width="983" height="320" fill="none"/>
    </g>
    <g id="LED_14" data-name="LED 14" transform="translate(62 179)" fill="#8784db" stroke="#707070" stroke-width="1" opacity="0.478">
      <rect width="22" height="22" stroke="none"/>
      <rect x="0.5" y="0.5" width="21" height="21" fill="none"/>
    </g>
    <g id="LED_12" data-name="LED 12" transform="translate(236 265)" fill="none" stroke="#707070" stroke-width="1" opacity="0.478">
      <rect width="22" height="22" stroke="none"/>
      <rect x="0.5" y="0.5" width="21" height="21" fill="none"/>
    </g>
    <g id="LED_11" data-name="LED 11" transform="translate(410 265)" fill="none" stroke="#707070" stroke-width="1" opacity="0.478">
      <rect width="22" height="22" stroke="none"/>
      <rect x="0.5" y="0.5" width="21" height="21" fill="none"/>
    </g>
    <g id="LED_10" data-name="LED 10" transform="translate(584 265)" fill="none" stroke="#707070" stroke-width="1" opacity="0.478">
      <rect width="22" height="22" stroke="none"/>
      <rect x="0.5" y="0.5" width="21" height="21" fill="none"/>
    </g>
    <g id="LED_9" data-name="LED 9" transform="translate(758 265)" fill="none" stroke="#707070" stroke-width="1" opacity="0.478">
      <rect width="22" height="22" stroke="none"/>
      <rect x="0.5" y="0.5" width="21" height="21" fill="none"/>
    </g>
    <g id="LED_8" data-name="LED 8" transform="translate(932 265)" fill="none" stroke="#707070" stroke-width="1" opacity="0.478">
      <rect width="22" height="22" stroke="none"/>
      <rect x="0.5" y="0.5" width="21" height="21" fill="none"/>
    </g>
    <g id="LED_7" data-name="LED 7" transform="translate(932 179)" fill="#8784db" stroke="#707070" stroke-width="1" opacity="0.478">
      <rect width="22" height="22" stroke="none"/>
      <rect x="0.5" y="0.5" width="21" height="21" fill="none"/>
    </g>
    <g id="LED_6" data-name="LED 6" transform="translate(932 93)" fill="#8784db" stroke="#707070" stroke-width="1" opacity="0.478">
      <rect width="22" height="22" stroke="none"/>
      <rect x="0.5" y="0.5" width="21" height="21" fill="none"/>
    </g>
    <g id="LED_5" data-name="LED 5" transform="translate(758 93)" fill="#8784db" stroke="#707070" stroke-width="1" opacity="0.478">
      <rect width="22" height="22" stroke="none"/>
      <rect x="0.5" y="0.5" width="21" height="21" fill="none"/>
    </g>
    <g id="LED_4" data-name="LED 4" transform="translate(584 93)" fill="#8784db" stroke="#707070" stroke-width="1" opacity="0.478">
      <rect width="22" height="22" stroke="none"/>
      <rect x="0.5" y="0.5" width="21" height="21" fill="none"/>
    </g>
    <g id="LED_3" data-name="LED 3" transform="translate(410 93)" fill="#8784db" stroke="#707070" stroke-width="1" opacity="0.478">
      <rect width="22" height="22" stroke="none"/>
      <rect x="0.5" y="0.5" width="21" height="21" fill="none"/>
    </g>
    <g id="LED_2" data-name="LED 2" transform="translate(236 93)" fill="#8784db" stroke="#707070" stroke-width="1" opacity="0.478">
      <rect width="22" height="22" stroke="none"/>
      <rect x="0.5" y="0.5" width="21" height="21" fill="none"/>
    </g>
    <g id="LED_1" data-name="LED 1" transform="translate(62 93)" fill="#8784db" stroke="#707070" stroke-width="1" opacity="0.478">
      <rect width="22" height="22" stroke="none"/>
      <rect x="0.5" y="0.5" width="21" height="21" fill="none"/>
    </g>
    <text id="Description" transform="translate(53 387)" font-size="18" font-family="Menlo-Regular, Menlo"><tspan x="0" y="0">LEDs from the front with</tspan><tspan x="0" y="21">usage and color shown</tspan></text>
    <text id="_2" data-name="2" transform="translate(242 110)" fill="#fff" font-size="16" font-family="Menlo-Regular, Menlo"><tspan x="0" y="0">2</tspan></text>
    <text id="_5" data-name="5" transform="translate(764 110)" fill="#fff" font-size="16" font-family="Menlo-Regular, Menlo"><tspan x="0" y="0">5</tspan></text>
    <text id="_6" data-name="6" transform="translate(938 110)" fill="#fff" font-size="16" font-family="Menlo-Regular, Menlo"><tspan x="0" y="0">6</tspan></text>
    <text id="_1" data-name="1" transform="translate(68 110)" fill="#fff" font-size="16" font-family="Menlo-Regular, Menlo"><tspan x="0" y="0">1</tspan></text>
    <text id="_7" data-name="7" transform="translate(938 196)" fill="#fff" font-size="16" font-family="Menlo-Regular, Menlo"><tspan x="0" y="0">7</tspan></text>
    <text id="_4" data-name="4" transform="translate(590 110)" fill="#fff" font-size="16" font-family="Menlo-Regular, Menlo"><tspan x="0" y="0">4</tspan></text>
    <text id="_3" data-name="3" transform="translate(416 110)" fill="#fff" font-size="16" font-family="Menlo-Regular, Menlo"><tspan x="0" y="0">3</tspan></text>
    <text id="_9" data-name="9" transform="translate(764 282)" fill="#707070" font-size="16" font-family="Menlo-Regular, Menlo" opacity="0.48"><tspan x="0" y="0">9</tspan></text>
    <text id="_10" data-name="10" transform="translate(586 281)" fill="#707070" font-size="15" font-family="Menlo-Regular, Menlo" opacity="0.48"><tspan x="0" y="0">10</tspan></text>
    <text id="_11" data-name="11" transform="translate(412 281)" fill="#707070" font-size="15" font-family="Menlo-Regular, Menlo" opacity="0.48"><tspan x="0" y="0">11</tspan></text>
    <text id="_12" data-name="12" transform="translate(238 281)" fill="#707070" font-size="15" font-family="Menlo-Regular, Menlo" opacity="0.48"><tspan x="0" y="0">12</tspan></text>
    <text id="_8" data-name="8" transform="translate(938 282)" fill="#707070" font-size="16" font-family="Menlo-Regular, Menlo" opacity="0.48"><tspan x="0" y="0">8</tspan></text>
    <text id="_14" data-name="14" transform="translate(64 195)" fill="#fff" font-size="15" font-family="Menlo-Regular, Menlo"><tspan x="0" y="0">14</tspan></text>
    <g id="Layer_-_LED_14" data-name="Layer - LED 14" transform="translate(6 86)">
      <g id="Box" transform="translate(47 164)" fill="none" stroke="#d3d3d3" stroke-width="1">
        <rect width="910" height="86" stroke="none"/>
        <rect x="0.5" y="0.5" width="909" height="85" fill="none"/>
      </g>
      <g id="LED_14-1" data-name="LED 14-1" transform="translate(56 179)" fill="#fff" stroke="#707070" stroke-width="1" opacity="0.478">
        <rect width="22" height="22" stroke="none"/>
        <rect x="0.5" y="0.5" width="21" height="21" fill="none"/>
      </g>
      <g id="LED_14-2" data-name="LED 14-2" transform="translate(453 179)" fill="#8784db" stroke="#707070" stroke-width="1" opacity="0.478">
        <rect width="22" height="22" stroke="none"/>
        <rect x="0.5" y="0.5" width="21" height="21" fill="none"/>
      </g>
      <g id="LED_14-3" data-name="LED 14-3" transform="translate(491 179)" fill="#33d665" stroke="#707070" stroke-width="1" opacity="0.478">
        <rect width="22" height="22" stroke="none"/>
        <rect x="0.5" y="0.5" width="21" height="21" fill="none"/>
      </g>
      <g id="LED_14-4" data-name="LED 14-4" transform="translate(529 179)" fill="#ce2d39" stroke="#707070" stroke-width="1" opacity="0.478">
        <rect width="22" height="22" stroke="none"/>
        <rect x="0.5" y="0.5" width="21" height="21" fill="none"/>
      </g>
      <text id="_1-2" data-name="1" transform="translate(459 220)" fill="#707070" font-size="16" font-family="Menlo-Regular, Menlo"><tspan x="0" y="0">1</tspan></text>
      <text id="_2-2" data-name="2" transform="translate(497 220)" fill="#707070" font-size="16" font-family="Menlo-Regular, Menlo"><tspan x="0" y="0">2</tspan></text>
      <text id="_3-2" data-name="3" transform="translate(535 220)" fill="#707070" font-size="16" font-family="Menlo-Regular, Menlo"><tspan x="0" y="0">3</tspan></text>
      <text id="Layer" transform="translate(459 239)" fill="#707070" font-size="16" font-family="Menlo-Regular, Menlo"><tspan x="0" y="0">Layer</tspan></text>
      <text id="_13" data-name="13" transform="translate(58 195)" fill="#707070" font-size="15" font-family="Menlo-Regular, Menlo" opacity="0.48"><tspan x="0" y="0">13</tspan></text>
    </g>
  </g>
</svg>
